<?xml version="1.0" encoding="utf-8"?>
<!-- Generator: Adobe Illustrator 24.2.3, SVG Export Plug-In . SVG Version: 6.00 Build 0)  -->
<svg version="1.1" id="Layer_1" xmlns="http://www.w3.org/2000/svg" xmlns:xlink="http://www.w3.org/1999/xlink" x="0px" y="0px"
	 viewBox="0 0 4000 4000" style="enable-background:new 0 0 4000 4000;" xml:space="preserve">
<style type="text/css">
	.st0{opacity:0.2;}
	.st1{fill:#000072;}
	.st2{opacity:0.55;}
	.st3{fill:#FFFFFF;}
	.st4{fill:#FFAC27;}
	.st5{fill:#650000;}
	.st6{opacity:0.3;}
	.st7{fill:#231F20;}
	.st8{fill:#C11734;}
	.st9{fill:#81CC1F;}
	.st10{fill:#FFC306;}
	.st11{fill:#F962BB;}
	.st12{fill:#F73954;}
</style>
<g>
	<g>
		<g>
			<g class="st0">
				<g>
					<ellipse class="st1" cx="2116.9" cy="3127.89" rx="1348.1" ry="133.18"/>
				</g>
			</g>
			<g>
				<g class="st2">
					<g>
						<path class="st3" d="M1242.88,2699.63c-47.02,40.36-107.67,63.68-169.44,67.78c47.95-9.54,93.61-30.77,130.76-62.66
							l-60.28-98.13c11.36-3.44,22.02-8.98,31.47-16.85L1242.88,2699.63z"/>
					</g>
				</g>
				<g class="st2">
					<g>
						<path class="st3" d="M1143.92,2606.63c-11.5,3.54-23.74,4.93-36.08,4.33c10.38-3.54,20.16-8.8,28.86-16.06L1143.92,2606.63z"
							/>
					</g>
				</g>
				<g>
					<g>
						<g>
							<path class="st4" d="M1242.88,2699.63c-76.85,65.96-190.02,86.44-285.12,51.67c-95.1-34.77-168.37-123.45-184.53-223.39
								c-10.99-67.82,2.61-137.83-8.52-205.66c-12.71-77.55-59.17-148.91-124.75-192.11c-1.58-1.07-3.17-2.05-4.75-3.07
								c-44.55-28.07-99.94-46.74-124.66-93.19c-23.37-43.85-8.98-101.95,27.32-135.88c36.31-33.89,90.07-45.06,139.05-36.73
								c40.82,6.89,78.53,26.07,112,50.83c6.7,4.84,13.22,10.01,19.55,15.36c92.73,77.92,151.24,195.32,157.67,316.31
								c3.03,57.02-4.98,114.14-2.61,171.16c2.37,57.07,16.9,116.75,57.02,157.34c40.13,40.59,111.02,54.09,154.83,17.5
								L1242.88,2699.63z"/>
						</g>
						<g>
							<path class="st5" d="M1054.67,2770.57c-33.12,0-66.26-5.59-97.71-17.08c-96.6-35.32-169.62-123.72-186.03-225.21
								c-5.51-34.02-4.86-69.06-4.24-102.95c0.62-33.87,1.26-68.91-4.28-102.71c-12.54-76.54-58.8-147.77-123.74-190.54
								c-1.04-0.7-2.06-1.35-3.08-2l-1.66-1.06c-11.31-7.13-23.6-13.79-35.49-20.24c-35.02-18.99-71.24-38.63-89.96-73.81
								c-22.86-42.89-10.91-102.5,27.79-138.67c34.79-32.48,87.5-46.42,141.02-37.32c37.58,6.34,75.6,23.59,112.99,51.26
								c6.38,4.6,12.82,9.66,19.67,15.45c92.8,77.99,152.06,196.86,158.49,317.96c1.56,29.49,0.17,59.45-1.18,88.41
								c-1.26,27.16-2.57,55.23-1.43,82.78c2.85,68.44,21.81,120.85,56.35,155.8c37.67,38.1,107.6,54.17,151.68,17.35l2.07-1.73
								l69.94,113.85l-1.51,1.29C1191.77,2746.56,1123.3,2770.57,1054.67,2770.57z M645.2,1860.89c-40.75,0-78.81,13.68-105.73,38.8
								c-37.21,34.78-48.75,91.99-26.86,133.08c18.06,33.95,53.65,53.25,88.07,71.91c11.95,6.48,24.31,13.18,35.78,20.41l1.66,1.06
								c1.05,0.67,2.1,1.34,3.16,2.05c65.98,43.46,113,115.86,125.74,193.66c5.62,34.22,4.97,69.46,4.34,103.54
								c-0.62,33.68-1.26,68.51,4.18,102.12c16.14,99.85,87.98,186.83,183.03,221.58c94.42,34.53,204.59,14.89,281.29-49.96
								l-65.06-105.9c-46.12,36.26-117.35,19.64-155.89-19.35c-35.39-35.8-54.8-89.25-57.69-158.88
								c-1.16-27.75,0.16-55.93,1.43-83.19c1.34-28.85,2.73-58.69,1.18-87.95c-6.37-119.84-65-237.47-156.84-314.65
								c-6.76-5.72-13.12-10.71-19.41-15.26c-36.83-27.25-74.17-44.21-111.03-50.42C666.01,1861.77,655.52,1860.89,645.2,1860.89z"
								/>
						</g>
					</g>
					<g class="st2">
						<g>
							<path class="st3" d="M981.88,2577.39c-40.13-40.59-54.65-100.27-57.02-157.34c-2.37-57.02,5.63-114.14,2.61-171.17
								c-6.42-120.98-64.94-238.38-157.67-316.31c-6.33-5.35-12.85-10.52-19.55-15.36c-33.47-24.76-71.18-43.94-112-50.83
								c-11.73-2-23.69-2.89-35.66-2.56c24.11-6.01,49.86-6.75,74.34-2.56c40.82,6.89,78.53,26.07,112,50.83
								c6.7,4.84,13.22,10.01,19.55,15.36c92.73,77.92,151.24,195.32,157.67,316.31c3.03,57.02-4.98,114.14-2.61,171.16
								c2.37,57.07,16.9,116.75,57.02,157.34c22.72,23,55.35,37.29,87.28,38.68C1065.94,2625.06,1014.04,2609.93,981.88,2577.39z"/>
						</g>
					</g>
					<g>
						<g>
							<path class="st3" d="M820.39,2068.41c-29.14,57.77-103.99,81.14-180.43,61.73c-1.58-1.07-3.17-2.05-4.75-3.07
								c-44.55-28.07-99.94-46.74-124.66-93.19c-23.37-43.85-8.98-101.95,27.32-135.88c36.31-33.89,90.07-45.06,139.05-36.73
								c40.82,6.89,78.53,26.07,112,50.83C830.54,1959.67,844.88,2019.81,820.39,2068.41z"/>
						</g>
					</g>
					<g class="st6">
						<g>
							<path class="st1" d="M1235.43,2705.78c-76.58,61.07-185.6,79.18-277.67,45.53c-95.1-34.77-168.37-123.45-184.52-223.39
								c-10.99-67.82,2.61-137.83-8.52-205.66c-12.71-77.55-59.17-148.91-124.75-192.11c-1.58-1.07-3.17-2.05-4.75-3.07
								c-44.55-28.07-99.94-46.74-124.66-93.19c-23.37-43.85-8.98-101.95,27.33-135.88c18.2-16.99,40.82-28.3,65.03-34.26
								c-31.1,34.54-42.13,87.79-20.34,128.71c24.72,46.46,80.11,65.12,124.66,93.19c1.58,1.02,3.17,2,4.75,3.07
								c65.59,43.2,112.05,114.56,124.75,192.11c11.13,67.82-2.47,137.84,8.52,205.66c16.15,99.94,89.42,188.62,184.53,223.39
								C1095.69,2733.99,1170.26,2731.52,1235.43,2705.78z"/>
						</g>
					</g>
					<g>
						<g>
							<path class="st7" d="M1054.59,2784.34c-34.7,0-69.43-5.85-102.36-17.9c-101.18-37-177.69-129.63-194.91-235.98
								c-5.7-35.24-5.04-70.92-4.41-105.41c0.64-34.78,1.25-67.63-4.09-100.18c-12.28-74.91-57.96-143.76-122.2-184.19
								c-10.94-6.88-22.47-13.13-34.67-19.74c-36.84-19.97-74.94-40.62-95.64-79.49c-25.68-48.23-12.55-114.96,30.56-155.22
								c37.91-35.41,94.99-50.68,152.73-40.87c46.76,7.95,93.6,31.42,139.21,69.75c95.71,80.43,156.8,202.97,163.4,327.81
								c1.6,30.16,0.19,60.45-1.17,89.75c-1.25,26.87-2.53,54.65-1.42,81.6c2.71,64.91,20.33,114.26,52.36,146.67
								c33.37,33.76,94.81,48.44,133.08,16.47c6.82-5.7,16.99-4.79,22.69,2.04c5.7,6.83,4.79,16.99-2.04,22.69
								c-53.56,44.74-133.4,25.21-176.65-18.55c-37.85-38.29-58.59-94.81-61.64-167.98c-1.18-28.37,0.14-56.87,1.42-84.44
								c1.33-28.51,2.7-57.99,1.19-86.55c-6.15-116.09-62.95-230.06-151.96-304.85c-41.18-34.59-82.86-55.68-123.89-62.65
								c-47.88-8.15-94.74,4.07-125.34,32.65c-32.81,30.64-43.17,80.74-24.11,116.53c16.14,30.31,48.4,47.8,82.56,66.31
								c12.12,6.57,24.65,13.36,36.47,20.8c71.93,45.27,123.09,122.37,136.84,206.25c5.81,35.43,5.14,71.29,4.5,105.98
								c-0.64,34.6-1.24,67.28,4,99.67c15.15,93.57,85.14,178.32,174.16,210.87c89.01,32.55,197.17,12.96,269.12-48.76
								c6.75-5.79,16.92-5.01,22.71,1.74c5.79,6.75,5.01,16.92-1.74,22.71C1198.23,2759.19,1126.5,2784.34,1054.59,2784.34z"/>
						</g>
					</g>
				</g>
				<g>
					<g>
						<path class="st4" d="M2801.19,3111.54c147.51,11.53,291.19,10.12,430.29-6.75c49.62-6.02,84.93-51.5,77.72-100.96
							c-48.7-333.91-556.33-320.95-615.18-35.66C2679.52,3038.46,2729.65,3105.95,2801.19,3111.54z"/>
					</g>
					<g>
						<path class="st5" d="M2987.89,3121.3c-60.97,0-123.35-2.48-186.88-7.45c-34.56-2.7-66.37-20.19-87.26-47.98
							c-21.07-28.03-29.1-63.81-22.01-98.17c31.76-153.96,186.67-219.99,317.21-216.14c123.14,3.61,276.27,71.75,302.55,251.93
							c3.55,24.35-2.75,48.56-17.74,68.18c-15.16,19.83-37.18,32.41-62,35.42C3153.73,3116.56,3072.17,3121.3,2987.89,3121.3z
							 M2801.37,3109.22c151.03,11.8,295.65,9.54,429.83-6.74c23.56-2.86,44.47-14.8,58.86-33.63
							c14.22-18.61,20.2-41.58,16.83-64.68c-25.86-177.33-176.73-244.4-298.08-247.96c-128.86-3.8-281.3,61.1-312.51,212.43
							c-6.82,33.05,0.9,67.47,21.17,94.43C2737.56,3089.8,2768.14,3106.62,2801.37,3109.22z"/>
					</g>
				</g>
				<g class="st6">
					<g>
						<path class="st1" d="M3309.18,3003.84c-2.33-16.01-5.73-31.21-10.07-45.63c-0.07-0.23-0.15-0.45-0.22-0.68
							c-1.38-4.55-2.85-9.03-4.42-13.42c-0.15-0.41-0.32-0.81-0.47-1.23c-1.52-4.19-3.1-8.32-4.79-12.37
							c-0.2-0.47-0.41-0.92-0.61-1.39c-1.67-3.96-3.41-7.87-5.23-11.69c-0.24-0.49-0.49-0.96-0.73-1.45
							c-1.83-3.77-3.72-7.49-5.69-11.12c-0.26-0.47-0.53-0.93-0.79-1.4c-2-3.62-4.04-7.18-6.18-10.67
							c-0.27-0.45-0.57-0.88-0.84-1.32c-2.16-3.47-4.37-6.89-6.66-10.23c-0.28-0.41-0.58-0.81-0.87-1.23
							c-2.32-3.33-4.68-6.61-7.13-9.81c-0.3-0.39-0.61-0.77-0.91-1.16c-2.46-3.18-4.98-6.31-7.56-9.36
							c-0.32-0.37-0.64-0.73-0.96-1.1c-2.6-3.03-5.26-6.01-7.98-8.91c-0.33-0.36-0.68-0.7-1.01-1.05c-2.73-2.88-5.51-5.7-8.35-8.44
							c-0.36-0.35-0.73-0.68-1.08-1.03c-2.84-2.71-5.73-5.37-8.67-7.95c-0.4-0.35-0.81-0.69-1.21-1.04
							c-2.92-2.53-5.89-5.01-8.91-7.41c-0.46-0.37-0.93-0.73-1.4-1.09c-2.98-2.35-6.01-4.64-9.08-6.86
							c-155-112.05-418.98-66.81-490.5,110.95l34.99,136.32c-6.81-0.48-13.62-0.96-20.45-1.49c-3.16-0.23-6.27-0.6-9.34-1.11
							c0.48,0.72,1,1.42,1.5,2.13c0.66,0.93,1.3,1.87,1.98,2.78c0.68,0.9,1.39,1.77,2.09,2.65c0.6,0.76,1.2,1.53,1.82,2.27
							c0.77,0.92,1.57,1.82,2.37,2.72c0.59,0.67,1.18,1.35,1.79,2c0.85,0.91,1.72,1.8,2.6,2.68c0.6,0.61,1.2,1.22,1.81,1.82
							c0.91,0.88,1.84,1.74,2.78,2.59c0.62,0.56,1.24,1.13,1.87,1.68c0.97,0.84,1.95,1.66,2.94,2.47c0.64,0.52,1.28,1.04,1.93,1.55
							c1.02,0.8,2.05,1.57,3.1,2.34c0.66,0.49,1.33,0.97,2,1.44c1.06,0.74,2.14,1.47,3.23,2.18c0.69,0.45,1.39,0.89,2.09,1.33
							c1.1,0.69,2.22,1.36,3.35,2.01c0.72,0.41,1.44,0.81,2.17,1.21c1.15,0.63,2.3,1.25,3.48,1.84c0.74,0.37,1.49,0.73,2.23,1.09
							c1.19,0.57,2.39,1.14,3.6,1.67c0.75,0.33,1.52,0.64,2.28,0.96c1.24,0.51,2.48,1.02,3.74,1.49c0.76,0.28,1.53,0.54,2.3,0.81
							c1.3,0.46,2.59,0.91,3.91,1.32c0.73,0.23,1.47,0.43,2.2,0.64c1.39,0.4,2.77,0.81,4.18,1.16c0.63,0.16,1.27,0.29,1.91,0.44
							c1.54,0.36,3.08,0.72,4.65,1.02c0.34,0.06,0.68,0.11,1.02,0.17c4,0.73,8.07,1.28,12.22,1.61
							c55.24,4.32,109.95,6.82,164.08,7.38c19.55,0.2,39.03,0.13,58.43-0.19c70.3-1.14,139.59-5.67,207.78-13.94
							c20.02-2.43,37.63-11.35,51.14-24.3C3302.59,3061.34,3313.48,3033.33,3309.18,3003.84z M3137.69,3053.83
							c-62.74,7.6-126.43,12.04-190.96,13.59c101.98-52.65,172.17-139.83,208.68-194.17c9.87-14.69,31.97-12.5,38.95,3.76
							c9.84,22.93,17.04,48.19,21.08,75.85C3222.6,3002.35,3187.31,3047.83,3137.69,3053.83z"/>
					</g>
				</g>
				<g class="st2">
					<g>
						<path class="st3" d="M3235.35,2847.85c-166-124.29-463.03-63.59-507.21,150.59c-7.35,35.7,1.96,70.66,22.3,97.15
							c-42.55-24.95-67.17-75.41-56.42-127.41C2741.41,2738.36,3080.01,2685.25,3235.35,2847.85z"/>
					</g>
				</g>
				<g>
					<g>
						<path class="st7" d="M2987.89,3135.27c-61.34,0-124.08-2.5-187.97-7.49l0,0c-38.55-3.01-74.03-22.52-97.33-53.52
							c-23.48-31.23-32.42-71.1-24.53-109.38c33.38-161.85,195.35-231.25,331.29-227.28c128.55,3.77,288.44,75.14,315.96,263.88
							c4.1,28.1-3.17,56.04-20.46,78.67c-17.46,22.85-42.82,37.34-71.41,40.81C3154.85,3130.49,3072.73,3135.27,2987.89,3135.27z
							 M2802.46,3095.29c150.1,11.73,293.79,9.49,427.06-6.68c19.8-2.4,37.36-12.43,49.45-28.25c11.92-15.6,16.93-34.84,14.11-54.18
							c-24.61-168.77-168.73-232.61-284.67-236.01c-122.85-3.67-268.84,57.85-298.43,201.29c-6.01,29.13,0.79,59.46,18.66,83.22
							C2746.32,3078.21,2773.22,3093.01,2802.46,3095.29L2802.46,3095.29z"/>
					</g>
				</g>
				<g>
					<g>
						<path class="st7" d="M3116.06,3100.07c7.64-5.21,14.99-9.76,21.74-14.94c6.67-5.21,13.19-10.72,18.57-17.72
							c5.54-6.85,10.24-14.85,14.24-23.58c4.08-8.72,7.36-18.15,10.62-27.92l0.03-0.1c0.83-2.5,3.53-3.84,6.02-3.01
							c1.8,0.6,3,2.17,3.22,3.93c1.32,10.63,1.38,21.53,0.05,32.59c-1.4,11.03-4.39,22.24-9.43,32.97
							c-5.16,10.59-12.08,20.9-21.01,28.99c-8.83,8.17-19.09,14.48-29.92,18.15c-8.58,2.91-17.9-1.69-20.81-10.27
							c-2.42-7.13,0.35-14.77,6.28-18.82L3116.06,3100.07z"/>
					</g>
				</g>
				<g>
					<g>
						<path class="st7" d="M2965.15,3102.61c7.64-5.21,14.98-9.76,21.73-14.94c6.67-5.21,13.19-10.72,18.57-17.72
							c5.54-6.85,10.24-14.85,14.24-23.58c4.08-8.72,7.36-18.15,10.62-27.92l0.03-0.1c0.83-2.5,3.53-3.84,6.02-3.01
							c1.79,0.6,3,2.17,3.22,3.93c1.32,10.63,1.38,21.53,0.05,32.59c-1.4,11.03-4.39,22.24-9.43,32.97
							c-5.16,10.59-12.08,20.9-21.01,28.99c-8.83,8.17-19.09,14.48-29.91,18.15c-8.58,2.91-17.9-1.69-20.81-10.27
							c-2.42-7.13,0.35-14.77,6.28-18.82L2965.15,3102.61z"/>
					</g>
				</g>
				<g class="st2">
					<g>
						<path class="st3" d="M2850.45,1404.09c-52.42-16.57-110.37-25.74-155.06-48.23
							C2746.08,1371.79,2803.76,1381.15,2850.45,1404.09z"/>
					</g>
				</g>
				<g class="st2">
					<g>
						<path class="st3" d="M2695.39,1355.87c-22.9-7.17-44.36-15.69-62.75-27.32c-67.78-43.06-116.05-134.3-182.48-174.61
							c1.21,0.23,2.37,0.47,3.58,0.7c90.63,18.81,143.93,140.3,225.44,192.11C2684.36,1350,2689.76,1353.08,2695.39,1355.87z"/>
					</g>
				</g>
				<g>
					<g>
						<path class="st4" d="M2643.03,2219.75c-12.68,489.44-403.41,876.35-872.73,864.2s-734.11-461.68-721.44-951.12
							c12.67-489.44,298.02-833.45,767.34-821.29C2285.53,1323.69,2655.71,1730.31,2643.03,2219.75z"/>
					</g>
					<g>
						<path class="st5" d="M1791.97,3086.56c-7.23,0-14.47-0.09-21.72-0.28c-222.42-5.76-410.29-108.66-543.31-297.57
							c-122.77-174.36-186.83-407.31-180.4-655.94c6.36-245.44,80.02-453.01,213.03-600.24
							c137.29-151.97,329.81-229.17,556.7-223.32c227.62,5.89,439.22,103.87,595.82,275.89
							c156.58,171.98,239.42,397.4,233.27,634.72c-6.14,237.32-100.54,458.14-265.81,621.79
							C2219.52,3000.07,2011.6,3086.56,1791.97,3086.56z M1792.43,1313.56c-438.3,0-728.28,319.05-741.24,819.33
							c-6.42,247.64,57.35,479.6,179.55,653.14c132.13,187.66,318.73,289.87,539.62,295.59c7.2,0.19,14.42,0.28,21.6,0.28
							c218.42,0.01,425.16-86.01,584.31-243.61c164.41-162.8,258.32-382.49,264.43-618.6c6.12-236.11-76.3-460.37-232.06-631.46
							c-155.73-171.06-366.15-268.5-592.5-274.37C1808.21,1313.66,1800.28,1313.56,1792.43,1313.56z"/>
					</g>
				</g>
				<g class="st6">
					<g>
						<path class="st1" d="M2643.02,2219.75c-12.66,489.43-403.4,876.35-872.72,864.2c-318.5-8.24-542.78-217.9-650.07-504.79
							c123.17,170.19,304.48,281.91,535.23,287.87c469.32,12.2,860.06-374.73,872.72-864.2c3.12-119.26-16.53-233.59-54.79-338.47
							C2584.6,1818.53,2648.42,2011.67,2643.02,2219.75z"/>
					</g>
				</g>
				<g class="st2">
					<g>
						<path class="st3" d="M2251.62,1449.99c-118.05-70.38-254.07-112.09-399.63-115.86c-469.32-12.2-754.63,331.81-767.33,821.28
							c-8.98,347.08,121.59,674.14,365.7,839.3c-267.11-156.5-410.9-498.18-401.5-861.88c12.66-489.43,298.01-833.43,767.33-821.29
							C1976.75,1315.74,2125.66,1366.02,2251.62,1449.99z"/>
					</g>
				</g>
				<g>
					<g>
						<path class="st7" d="M1791.97,3100.34c-7.36,0-14.7-0.1-22.08-0.29c-226.95-5.88-418.6-110.79-554.22-303.41
							c-124.46-176.76-189.42-412.66-182.91-664.24c6.45-248.78,81.33-459.41,216.58-609.12
							c140.06-155.05,336.21-233.85,567.28-227.85c231.42,5.99,446.51,105.57,605.66,280.39
							c158.97,174.63,243.1,403.46,236.86,644.35s-102.09,465.06-269.89,631.23C2226.62,3012.43,2015.26,3100.34,1791.97,3100.34z
							 M1792.57,1327.34c-430.22,0-714.85,313.82-727.59,805.91c-6.34,244.7,56.54,473.71,177.04,644.85
							c129.53,183.96,312.35,284.15,528.71,289.75c7.08,0.18,14.17,0.28,21.23,0.28c214.77,0.01,418.09-84.6,574.63-239.62
							c161.87-160.29,254.33-376.63,260.35-609.17c6.02-232.54-75.12-453.38-228.48-621.83
							c-153.18-168.26-360.11-264.1-582.66-269.87C1808.03,1327.44,1800.23,1327.34,1792.57,1327.34z"/>
					</g>
				</g>
				<g>
					<g>
						<path class="st8" d="M2918.57,2181.25c-13.33,514.62-410.62,921.8-887.37,909.45s-729.13-410.89-715.81-925.51
							c13.33-514.62,287.32-950.45,764.07-938.11C2556.21,1239.43,2931.9,1666.63,2918.57,2181.25z"/>
					</g>
				</g>
				<g class="st6">
					<g>
						<path class="st1" d="M2918.57,2181.26c-13.33,514.63-410.6,921.8-887.35,909.45c-368.65-9.55-603.17-249.99-684.34-596.44
							c118.6,205.03,316.43,335.46,585.96,342.44c476.75,12.35,874.07-394.83,887.39-909.45c2.27-87.53-6.71-172.56-25.57-253.42
							C2877.55,1821.31,2923.38,1995.58,2918.57,2181.26z"/>
					</g>
				</g>
				<g class="st2">
					<g>
						<path class="st3" d="M2724.6,1566.97c-152.45-180.01-370.14-295.17-614.31-301.5c-476.75-12.35-750.76,423.49-764.08,938.12
							c-6.76,260.92,54.82,492.04,179.33,658.06c-145.13-167.86-217.43-414.76-210.14-696.43
							c13.33-514.63,287.29-950.47,764.08-938.12C2340.63,1233.86,2571.42,1365.09,2724.6,1566.97z"/>
					</g>
				</g>
				<g>
					<g>
						<path class="st7" d="M2052.47,3108.06c-7.23,0-14.46-0.09-21.71-0.28c-232.9-6.03-424.83-103.33-555.03-281.39
							c-122.92-168.1-184.27-396.89-177.41-661.64c6.86-264.65,82.04-504.91,211.7-676.52
							c142.03-187.99,339.17-284.16,569.89-278.22c235.39,6.1,454.05,110.69,615.72,294.52
							c161.34,183.46,246.58,423.95,240.02,677.16s-104.13,488.96-274.75,663.83C2495.2,3015.34,2279.87,3108.06,2052.47,3108.06z
							 M2059.85,1243.91c-211.06,0-391.42,91.32-522.58,264.91c-125.4,165.97-198.13,399.23-204.8,656.81
							c-6.66,257.13,52.41,478.64,170.83,640.58c123.72,169.19,306.42,261.66,528.34,267.41c6.93,0.18,13.88,0.27,20.79,0.27
							c218.15,0.01,424.8-89.07,584.01-252.23c164.58-168.68,258.71-396.27,265.04-640.85c6.34-244.58-75.88-476.74-231.52-653.71
							c-155.31-176.6-365.18-277.09-590.95-282.93C2072.6,1244,2066.21,1243.91,2059.85,1243.91z"/>
					</g>
				</g>
				<g>
					<g>
						<path class="st9" d="M3141.66,2550.72c-27.32,93.33-150.5,141.05-200.82,217.34c-53.16,80.62-79.46,152.13-154.45,206.4
							c-68.15,49.3-152.31,68.38-236.99,86.4c-9.59,2-19.18,4.05-28.77,6.1c-94.22,20.2-188.62,110.46-280.33,91.42
							c-90.68-18.81-156.97-115.26-238.43-167.02c-77.18-49.02-196.12-67.17-259.24-141.09c-10.8-12.62-18.76-27.23-24.86-43.24
							c-27.42-72.06-16.67-172-51.11-243.69c-39.57-82.3-157.99-141.89-178.33-237.03c-20.39-95.15,63.26-197.98,65.64-289.31
							c2.56-97.15-73.83-205.19-48.13-292.85c27.32-93.33,150.5-141.05,200.82-217.34c53.16-80.63,52.04-213.29,127.04-267.57
							c75.88-54.88,198.96-11.17,293.17-31.33c94.22-20.2,188.62-110.46,280.32-91.42c90.63,18.81,143.93,140.3,225.44,192.07
							c77.13,49.02,209.06,42.13,272.18,116.05c59.35,69.45,33.89,199.33,75.97,286.94c39.61,82.3,158.04,141.89,178.38,237.03
							c20.39,95.15-63.26,197.98-65.68,289.31C3090.92,2355.02,3167.36,2463.07,3141.66,2550.72z"/>
					</g>
					<g>
						<path class="st5" d="M2266.12,3163.3c-8.79,0-17.55-0.83-26.28-2.64c-57.8-11.98-106.43-55.75-153.45-98.07
							c-27.45-24.7-55.83-50.24-85.76-69.26c-29.04-18.44-63.48-32.27-99.94-46.91c-59.11-23.73-120.22-48.27-159.82-94.64
							c-10.34-12.08-18.61-26.46-25.26-43.93c-12.73-33.47-17.38-73.6-21.88-112.41c-5.28-45.62-10.75-92.79-29.16-131.1
							c-16.9-35.16-47.85-65.64-80.62-97.92c-42.37-41.73-86.19-84.88-97.89-139.64c-11.73-54.74,10.56-112.03,32.12-167.43
							c16.69-42.89,32.45-83.39,33.46-122.42c1.12-42.47-13.2-87.73-27.06-131.49c-18.28-57.74-35.54-112.28-20.98-161.95
							c16.18-55.28,65.55-94.75,113.3-132.93c34.52-27.6,67.12-53.66,87.81-85.04c21.73-32.95,34.54-75.43,46.92-116.5
							c17.69-58.66,35.98-119.31,80.69-151.67c46.68-33.77,111.76-30.7,174.67-27.74c40.62,1.91,82.61,3.89,119.38-3.98
							c36.76-7.88,74.25-26.87,110.5-45.23c56.21-28.46,114.33-57.91,170.78-46.19c54.03,11.21,95.55,59.05,135.7,105.31
							c28.12,32.4,57.2,65.91,90.52,87.07c31.73,20.17,72.16,30.61,114.97,41.66c59.17,15.28,120.36,31.08,157.73,74.85
							c33.63,39.36,40.21,96.21,47.17,156.41c5.28,45.6,10.73,92.74,29.13,131.03c16.92,35.15,47.87,65.63,80.63,97.9
							c42.38,41.74,86.21,84.89,97.92,139.66c11.73,54.76-10.57,112.06-32.15,167.48c-16.68,42.87-32.45,83.36-33.48,122.38
							c-1.12,42.47,13.21,87.73,27.08,131.5c18.29,57.74,35.56,112.28,21,161.94l0,0c-16.18,55.28-65.55,94.75-113.29,132.93
							c-34.52,27.6-67.12,53.66-87.81,85.04c-14.19,21.53-26.45,42.36-38.29,62.51c-32.96,56.05-61.43,104.46-116.74,144.49
							c-70.85,51.26-159.58,70.13-237.87,86.79c-9.59,2-19.18,4.05-28.76,6.1c-36.76,7.88-74.25,26.87-110.51,45.23
							C2363.1,3138.54,2314.2,3163.3,2266.12,3163.3z M1953.07,1232.56c-43.86,0-85.72,5.2-118.01,28.55
							c-43.44,31.44-60.69,88.66-78.96,149.24c-12.49,41.4-25.39,84.2-47.5,117.72c-21.1,31.99-53.98,58.28-88.79,86.12
							c-47.18,37.72-95.96,76.73-111.74,130.6c-14.16,48.3,2.9,102.19,20.96,159.23c13.97,44.13,28.41,89.77,27.28,133.02
							c-1.04,39.84-16.94,80.72-33.78,123.99c-21.31,54.76-43.35,111.39-31.91,164.77c11.42,53.4,54.72,96.05,96.61,137.3
							c33.06,32.56,64.3,63.32,81.55,99.21c18.75,39.02,24.25,86.58,29.58,132.58c4.67,40.3,9.08,78.36,21.61,111.29
							c6.46,16.97,14.46,30.89,24.45,42.56c38.86,45.5,99.43,69.82,158.02,93.34c36.67,14.72,71.3,28.63,100.7,47.3
							c30.26,19.23,58.78,44.9,86.37,69.73c46.56,41.91,94.72,85.24,151.28,96.98c54.8,11.39,112.22-17.68,167.72-45.79
							c36.52-18.5,74.29-37.62,111.64-45.63c9.59-2.05,19.19-4.1,28.78-6.1c77.82-16.56,166.04-35.33,236.1-86.01
							c54.53-39.47,82.76-87.49,115.45-143.09c11.88-20.2,24.16-41.09,38.42-62.71c21.1-31.99,53.98-58.28,88.79-86.11
							c47.18-37.72,95.97-76.73,111.74-130.6l0,0c14.16-48.3-2.91-102.18-20.98-159.23c-13.98-44.14-28.44-89.77-27.3-133.03
							c1.06-39.83,16.96-80.69,33.8-123.95c21.32-54.78,43.37-111.42,31.93-164.82c-11.42-53.41-54.74-96.06-96.64-137.32
							c-33.06-32.56-64.29-63.31-81.57-99.19c-18.73-38.99-24.23-86.54-29.55-132.51c-6.88-59.47-13.38-115.63-46.09-153.92
							c-36.43-42.66-96.88-58.27-155.36-73.36c-43.17-11.15-83.95-21.67-116.3-42.23c-33.89-21.53-63.2-55.3-91.54-87.95
							c-41.47-47.78-80.63-92.91-133.13-103.8c-54.84-11.37-112.24,17.68-167.73,45.79c-36.52,18.5-74.28,37.62-111.63,45.63
							c-37.37,7.99-79.66,6-120.58,4.07C1988.89,1233.41,1970.82,1232.56,1953.07,1232.56z"/>
					</g>
				</g>
				<g class="st2">
					<g>
						<path class="st3" d="M2407.2,1136.48c15.27,3.17,29.51,9.26,42.97,17.46c-90.59-16.01-183.73,72.25-276.74,92.12
							c-94.22,20.16-217.3-23.55-293.17,31.37c-74.99,54.28-73.88,186.95-127.04,267.52c-50.32,76.34-173.49,124.06-200.82,217.34
							c-25.7,87.65,50.69,195.74,48.13,292.89c-2.37,91.28-86.02,194.16-65.64,289.26c20.34,95.15,138.77,154.73,178.33,237.08
							c42.13,87.56,16.67,217.44,75.97,286.89c63.12,73.97,182.06,92.08,259.24,141.09c65.45,41.62,121.12,112.09,187.55,147.89
							c-88.49-20.9-153.94-115.12-234.1-166.04c-77.18-49.02-196.12-67.17-259.24-141.09c-59.3-69.45-33.84-199.33-75.97-286.94
							c-39.57-82.3-157.99-141.89-178.33-237.03c-20.39-95.15,63.26-197.98,65.64-289.31c2.56-97.15-73.83-205.19-48.13-292.85
							c27.32-93.33,150.5-141.05,200.82-217.34c53.16-80.63,52.04-213.29,127.04-267.57c75.88-54.88,198.96-11.17,293.17-31.33
							C2221.09,1207.7,2315.49,1117.44,2407.2,1136.48z"/>
					</g>
				</g>
				<g>
					<g>
						<path class="st7" d="M2266.28,3177.31c-9.74,0-19.51-0.93-29.3-2.96c-61.46-12.76-111.51-57.8-159.91-101.36
							c-27.03-24.33-54.99-49.49-83.95-67.89c-27.94-17.76-61.81-31.35-97.66-45.74c-60.65-24.35-123.37-49.53-165.2-98.51
							c-36.37-42.59-43.51-104.22-50.4-163.81c-5.15-44.47-10.47-90.45-27.86-126.63c-15.86-32.99-45.98-62.65-77.87-94.06
							c-43.83-43.17-89.15-87.8-101.75-146.63c-12.59-58.83,10.48-118.1,32.79-175.43c16.24-41.71,31.57-81.11,32.53-117.7
							c1.06-40.14-12.91-84.27-26.42-126.94c-18.11-57.2-36.84-116.35-21.09-170.1c17.42-59.48,68.53-100.33,117.95-139.85
							c33.64-26.9,65.42-52.31,84.91-81.86c20.6-31.24,33.11-72.71,45.2-112.82c18.36-60.88,37.34-123.83,85.88-158.96
							c50.64-36.65,118.21-33.46,183.52-30.4c39.73,1.87,80.81,3.8,115.81-3.69c35-7.49,71.69-26.07,107.17-44.05
							c58.35-29.55,118.7-60.11,179.89-47.4c58.67,12.18,101.76,61.84,143.43,109.86c27.46,31.64,55.84,64.36,87.43,84.43
							c29.87,18.98,69.27,29.15,110.98,39.92c61.27,15.82,124.62,32.17,164.87,79.29c36.37,42.59,43.51,104.22,50.41,163.82
							c5.15,44.47,10.47,90.45,27.86,126.63c15.86,32.99,45.98,62.66,77.87,94.06c43.83,43.17,89.15,87.8,101.75,146.63l0,0
							c12.59,58.83-10.48,118.1-32.79,175.42c-16.24,41.71-31.57,81.11-32.53,117.7c-1.05,40.13,12.92,84.26,26.43,126.94
							c18.11,57.2,36.84,116.35,21.09,170.1c-17.42,59.48-68.53,100.34-117.95,139.85c-33.65,26.9-65.42,52.31-84.91,81.86
							c-13.99,21.22-26.15,41.9-37.91,61.89c-32.35,55.01-62.9,106.98-120.59,148.73c-73.5,53.2-164.59,72.5-252.69,91.17
							l-19.22,4.09c-35,7.49-71.69,26.07-107.17,44.05C2367.85,3151.78,2317.44,3177.31,2266.28,3177.31z M1952.02,1246.48
							c-41.71,0-79.62,4.86-108.79,25.97c-39.62,28.68-56.22,83.71-73.78,141.98c-12.77,42.35-25.97,86.14-49.19,121.35
							c-22.32,33.85-57.63,62.08-91.77,89.38c-45.48,36.36-92.5,73.95-107.03,123.56c-12.95,44.22,3.48,96.14,20.88,151.1
							c14.32,45.24,29.14,92.03,27.93,137.63c-1.11,42.26-18.21,86.18-34.74,128.66c-20.57,52.85-41.84,107.51-31.29,156.79
							c10.55,49.28,52.34,90.44,92.74,130.24c32.48,31.98,66.05,65.06,84.38,103.16c19.77,41.12,25.41,89.87,30.86,137.01
							c6.63,57.27,12.89,111.36,42.81,146.4c36.63,42.89,95.57,66.55,152.57,89.43c35.64,14.31,72.51,29.11,103,48.48
							c31.26,19.86,60.24,45.95,88.27,71.17c47.26,42.53,91.89,82.71,144.73,93.68c50.03,10.38,102.74-16.31,158.54-44.57
							c37.33-18.91,75.93-38.46,115.07-46.84l19.3-4.1c88.67-18.79,172.43-36.54,240.34-85.69c52.16-37.75,79.71-84.6,111.6-138.85
							c11.97-20.35,24.34-41.39,38.79-63.31c22.32-33.85,57.63-62.08,91.77-89.38c45.48-36.36,92.5-73.95,107.03-123.56
							c12.95-44.22-3.49-96.14-20.88-151.1c-14.33-45.24-29.14-92.03-27.94-137.63c1.11-42.26,18.21-86.19,34.74-128.66
							c20.57-52.85,41.85-107.5,31.29-156.78l0,0c-10.55-49.28-52.34-90.44-92.75-130.24c-32.47-31.98-66.05-65.06-84.37-103.16
							c-19.77-41.12-25.41-89.86-30.87-137c-6.63-57.27-12.89-111.36-42.81-146.4c-33.57-39.31-91.86-54.36-148.24-68.9
							c-42.32-10.93-86.09-22.22-120.32-43.97c-35.6-22.62-65.58-57.17-94.56-90.57c-39.88-45.96-77.55-89.38-125.44-99.32
							c-50.04-10.38-102.74,16.31-158.54,44.57c-37.33,18.91-75.93,38.46-115.07,46.84c-39.14,8.38-82.36,6.34-124.17,4.38
							C1987.66,1247.33,1969.51,1246.48,1952.02,1246.48z"/>
					</g>
				</g>
				<g>
					<g>
						<path class="st1" d="M1710.15,2788.08l5.4,14.8C1711.13,2794.18,1710.15,2788.08,1710.15,2788.08z"/>
					</g>
				</g>
				<g class="st6">
					<g>
						<path class="st1" d="M2549.41,3060.86c-9.59,2-19.18,4.05-28.77,6.1c-94.22,20.2-188.62,110.46-280.33,91.42
							c-90.68-18.81-156.97-115.26-238.43-167.02c-77.18-49.02-196.12-67.17-259.24-141.09c-10.8-12.62-18.76-27.23-24.86-43.24
							c16.94,28.81,69.73,76.9,229.21,42.45c219.34-47.43,598.17,141.14,600.87,190.72
							C2548.2,3046.15,2548.8,3053.14,2549.41,3060.86z"/>
					</g>
				</g>
				<g>
					<g>
						<polygon class="st10" points="1927.17,2768.76 1891.37,2753.54 1531.68,2600.9 1508.45,2591.03 1709.78,2127.21 
							1820.52,2454.03 1914.51,2731.33 						"/>
					</g>
					<g>
						<path class="st5" d="M1931.04,2772.93l-40.58-17.26l-385.08-163.42l0.94-2.15l203.74-469.36L1931.04,2772.93z
							 M1511.52,2589.81l411.78,174.78l-213.79-630.92L1511.52,2589.81z"/>
					</g>
				</g>
				<g class="st2">
					<g>
						<polygon class="st3" points="1731.05,2189.96 1549.37,2608.39 1508.45,2591.03 1709.78,2127.21 						"/>
					</g>
				</g>
				<g>
					<g>
						<path class="st7" d="M1927.18,2785.05c-2.14,0-4.31-0.42-6.36-1.3l-384.85-163.35c-13.06-5.54-23.15-15.86-28.41-29.04
							c-5.26-13.18-5.04-27.6,0.61-40.62l186.69-430.02c2.69-6.18,9.02-10.03,15.62-9.79c6.73,0.28,12.6,4.67,14.76,11.05
							l217.39,641.54c2.06,6.08,0.36,12.81-4.35,17.17C1935.19,2783.55,1931.21,2785.05,1927.18,2785.05z M1707.92,2172.45
							l-169.87,391.27c-2.17,4.99-2.25,10.51-0.23,15.56c2.02,5.05,5.88,9,10.88,11.12l351.38,149.15L1707.92,2172.45z"/>
					</g>
				</g>
				<g class="st6">
					<g>
						<path class="st1" d="M1914.51,2731.33c-7.22,7.17-14.94,14.52-23.14,22.2l-359.69-152.64c6.28,0.33,12.99,0.88,20.2,1.72
							c178.43,20.9,179.17-103.16,179.17-103.16l89.47-45.43L1914.51,2731.33z"/>
					</g>
				</g>
				<g>
					<g>
						<path class="st4" d="M2724.39,1257.55c330.13-384.36,575.97-247.51,511.82,420.07"/>
					</g>
					<g>
						<path class="st5" d="M3238.52,1677.85l-4.63-0.44c17.02-177.17,12.84-321.43-12.42-428.76
							c-23.87-101.38-65.23-165.26-122.96-189.85c-94.55-40.3-226.82,30.83-372.35,200.28l-3.54-3.03
							c146.97-171.11,281.13-242.69,377.71-201.53C3223.05,1106.78,3272.13,1328.16,3238.52,1677.85z"/>
					</g>
				</g>
				<g class="st2">
					<g>
						<path class="st3" d="M3205.76,1187.54c-83.46-167.91-252.35-136.39-454.14,92.36l-27.23-22.34
							C2944.8,1000.92,3127.65,976.67,3205.76,1187.54z"/>
					</g>
				</g>
				<g>
					<g>
						<path class="st11" d="M2903.84,1334.13c159.43-143.23,232.7-82.49,219.72,182.15"/>
					</g>
				</g>
				<g class="st2">
					<g>
						<path class="st3" d="M3159.42,1534.33l-35.17-34.09c2.75-134.86-19.87-227.6-68.98-239.75
							C3137.66,1236.33,3173.38,1338.04,3159.42,1534.33z"/>
					</g>
				</g>
				<g class="st6">
					<g>
						<path class="st1" d="M3106.94,1317.23c-34.73-6.75-81.88,15.92-141.47,68.01l-61.63-51.11
							C3009.14,1239.54,3076.87,1233.91,3106.94,1317.23z"/>
					</g>
				</g>
				<g>
					<g>
						<path class="st7" d="M3236.23,1693.92c-0.52,0-1.05-0.02-1.58-0.08c-8.96-0.86-15.52-8.82-14.66-17.78
							c32.29-336-13.99-556.31-126.95-604.43c-88.55-37.71-215.05,32.1-356.29,196.54c-5.86,6.82-16.14,7.61-22.97,1.74
							c-6.83-5.86-7.61-16.15-1.74-22.97c151.26-176.11,291.1-249.03,393.78-205.28c128.78,54.86,180.85,281.27,146.62,637.52
							C3251.62,1687.61,3244.52,1693.92,3236.23,1693.92z"/>
					</g>
				</g>
				<g>
					<g>
						<path class="st7" d="M3123.57,1532.58c-0.27,0-0.54-0.01-0.82-0.02c-8.98-0.44-15.91-8.08-15.47-17.07
							c8.46-172.42-21.57-223.74-48.26-236.44c-29.75-14.14-79.62,9.1-144.3,67.2c-6.69,6.02-17,5.46-23.01-1.23
							c-6.02-6.69-5.46-16.99,1.23-23.01c77.4-69.53,136.3-93.2,180.07-72.39c52.56,25,74.41,112.49,66.81,267.46
							C3139.4,1525.8,3132.2,1532.57,3123.57,1532.58z"/>
					</g>
				</g>
				<g>
					<g>
						<path class="st4" d="M3358.4,2158.91c0,109.72-17.32,214.97-49.16,312.72v0.14c-117.49,360.9-432.5,619.26-802.66,619.26
							c-271.95,0-504.79-139.42-652.87-356.48c-0.05-0.05-0.05-0.09-0.05-0.09c-108.14-158.46-171.03-358.34-171.03-575.55
							c0-514.8,353.46-932.12,823.94-932.12C2977.02,1226.79,3358.4,1644.11,3358.4,2158.91z"/>
					</g>
					<g>
						<path class="st5" d="M2506.58,3093.35c-261.14,0-499.8-130.3-654.79-357.5l-0.41-0.63
							c-111.91-164.23-171.07-363.51-171.07-576.33c0-251.51,83.85-486.13,236.11-660.64c154.05-176.57,363.64-273.81,590.15-273.81
							c470.98,0,854.15,419.19,854.15,934.45c0,107.49-16.54,212.83-49.16,313.1l-0.12,0.49
							C3190.56,2843.85,2867.1,3093.35,2506.58,3093.35z M1856,2733.81c154.36,225.66,391.34,354.89,650.58,354.89
							c358.39,0,679.98-248.05,800.34-617.3l0.12-0.49c32.54-99.91,49.04-204.88,49.04-312c0-512.69-381.08-929.79-849.49-929.79
							c-460.71,0-821.61,408.42-821.61,929.79c0,212.11,59,410.68,170.62,574.24L1856,2733.81z"/>
					</g>
				</g>
				<g>
					<g>
						<path class="st3" d="M3309.25,2471.63v0.14c-117.49,360.9-432.5,619.26-802.66,619.26c-271.95,0-504.79-139.42-652.87-356.48
							c-0.05-0.05-0.05-0.09-0.05-0.09c59.72-467.97,458.52-469.27,565.68-512.75c107.11-43.43,192.35-160.69,192.35-160.69
							c7.35-9.64,15.64-18.34,24.53-26.25c89.19-79.46,225.77-69.22,307.09,18.2c19.74,21.23,39.33,47.43,57.49,79.83
							c0,0,52.32,105.53,138.44,133.69C3225.36,2294.65,3332.61,2334.35,3309.25,2471.63z"/>
					</g>
				</g>
				<g class="st6">
					<g>
						<path class="st1" d="M3312.5,2112.9c0,109.72-17.32,214.97-49.16,312.72v0.14c-117.49,360.9-432.5,619.26-802.66,619.26
							c-271.95,0-504.79-139.42-652.87-356.48c-0.05-0.05-0.05-0.09-0.05-0.09c-1.3-1.91-2.61-3.86-3.86-5.77
							c136.44,115.72,307.88,184.25,498.51,184.25c370.17,0,685.17-258.35,802.67-619.26v-0.14
							c31.84-97.76,49.16-203.01,49.16-312.72c0-207.89-62.19-399.87-167.3-554.88C3185.18,1550.58,3312.5,1815.49,3312.5,2112.9z"
							/>
					</g>
				</g>
				<g class="st2">
					<g>
						<path class="st3" d="M1745.21,2177.53c0,217.2,62.89,417.09,171.03,575.55c0,0,0,0.05,0.05,0.09
							c100.27,146.96,239.41,258.35,403.22,314.91c-191-47.9-352.99-168.19-465.78-333.53c-0.05-0.05-0.05-0.09-0.05-0.09
							c-108.14-158.46-171.03-358.34-171.03-575.55c0-514.8,353.46-932.12,823.94-932.12c88.96,0,174.7,14.9,255.33,42.59
							c-61.96-15.69-126.48-23.97-192.76-23.97C2098.66,1245.41,1745.21,1662.73,1745.21,2177.53z"/>
					</g>
				</g>
				<g>
					<g>
						<path class="st7" d="M2506.58,3107.32c-265.83,0-508.7-132.52-666.32-363.59v0c-0.13-0.19-0.25-0.37-0.37-0.57
							c-113.53-166.57-173.54-368.59-173.54-584.25c0-254.89,85.08-492.77,239.56-669.82c156.74-179.65,370.07-278.59,600.67-278.59
							c478.68,0,868.12,425.46,868.12,948.41c0,108.75-16.7,215.33-49.65,316.82c-0.09,0.37-0.2,0.73-0.31,1.09
							C3201.96,2853.94,2873.17,3107.32,2506.58,3107.32z M1867.52,2725.87c151.47,221.73,384.36,348.87,639.06,348.87
							c352.13,0,668.24-243.92,786.87-607.07c0.09-0.37,0.19-0.73,0.3-1.08c32.08-98.51,48.35-202.03,48.35-307.68
							c0-504.99-374.81-915.83-835.53-915.83c-452.89,0-807.64,402.28-807.64,915.83c0,209.29,58.16,405.13,168.19,566.36
							C1867.26,2725.47,1867.39,2725.67,1867.52,2725.87z M3309.25,2471.77h0.05H3309.25z"/>
					</g>
				</g>
				<g>
					<g>
						<path class="st4" d="M2257.55,1357.9c-444.6-411.3-697.24-204.67-451.93,583.87"/>
					</g>
					<g>
						<path class="st5" d="M1803.41,1942.46c-127.5-409.82-127.79-690.82-0.82-770.95c98.5-62.16,260.63,3.44,456.54,184.69
							l-3.16,3.42c-194.23-179.69-354.37-245.08-450.89-184.17c-125.06,78.92-124.05,357.98,2.77,765.63L1803.41,1942.46z"/>
					</g>
				</g>
				<g class="st2">
					<g>
						<path class="st3" d="M1805.63,1941.75L1805.63,1941.75c-195.51-628.38-74.76-887.25,207.38-758.26
							c-232.36-74.09-331.48,154.16-190.36,672.17C1830.77,1885.45,1824.52,1917.33,1805.63,1941.75z"/>
					</g>
				</g>
				<g>
					<g>
						<path class="st7" d="M2252.81,1363.03c-25.27-13.19-46.89-29.88-68.2-46.98c-21.57-16.74-43.18-33.29-65.17-49.22
							c-43.8-31.91-90.2-60.83-140-79.69c-24.77-9.57-50.4-16.22-75.95-18.76c-25.46-2.14-51.06,0.07-73.48,9.86
							c-22.46,9.53-41.73,25.78-55.96,46.59c-7.22,10.29-13.5,21.47-18.6,33.36c-2.8,5.8-4.84,12.03-7.24,18.06
							c-1.95,6.25-4.23,12.37-5.85,18.77c-14.06,50.89-17.29,105.44-15.94,159.57c1.46,54.27,7.64,108.66,16.44,162.65
							c4.37,27.01,9.58,53.92,15.39,80.71c6.08,26.74,12.57,53.39,18.9,80.1c12.04,53.59,24.65,107.14,35.14,161.64
							c0.74,3.81-1.75,7.5-5.56,8.23c-3.29,0.64-6.49-1.14-7.78-4.09c-22.3-51.08-39.91-103.92-54.64-157.6
							c-7.21-26.88-12.92-54.16-18.43-81.47c-5.4-27.34-10.68-54.71-15.19-82.27c-8.97-55.09-15.34-110.81-16.86-167.08
							c-1.35-56.17,1.76-113.32,17.14-169.22c1.79-7,4.3-13.87,6.49-20.79c2.68-6.82,4.99-13.73,8.17-20.41
							c5.81-13.5,13.09-26.59,21.74-38.91c16.92-24.8,41.38-45.86,69.9-57.86c28.52-12.37,59.76-14.82,89.14-12.31
							c29.48,2.91,57.81,10.44,84.57,20.75c53.54,20.82,102.53,49.66,148.7,81.74c22.99,16.2,45.1,33.53,66.13,52.01
							c21.19,18.26,41.04,38.14,56.46,62.36c2.14,3.36,1.15,7.83-2.21,9.97c-2.25,1.44-5,1.46-7.21,0.32L2252.81,1363.03z"/>
					</g>
				</g>
				<g>
					<g>
						<path class="st11" d="M2116.75,1470.8c0,0-154.95,125.98-214.72,345.43C1763.96,1365.93,1835.54,1250.79,2116.75,1470.8z"/>
					</g>
				</g>
				<g class="st2">
					<g>
						<path class="st3" d="M2136.63,1512.89c-44.41,44.08-133.24,145.96-180.29,294.42c-8.89,28.04-48.9,28.26-57.04-0.01
							c-0.08-0.26-0.15-0.53-0.22-0.79c68.99-177.96,217.69-335.7,217.69-335.7c-51.16-40.03-95.38-68.94-132.67-86.77
							c38.77,9.69,88.4,36.76,148.92,81.22C2148.57,1476.68,2150.33,1499.29,2136.63,1512.89z"/>
					</g>
				</g>
				<g class="st6">
					<g>
						<path class="st1" d="M1936.76,1718.82c-13.31,30.02-25.23,62.56-34.73,97.43c-106.93-348.71-88.12-496.41,56.42-443.2
							C1887.23,1386.03,1880.01,1501.29,1936.76,1718.82z"/>
					</g>
				</g>
				<g>
					<g>
						<path class="st7" d="M1902.03,1832.53c-7.15,0-13.48-4.66-15.58-11.52c-82.76-269.91-90.95-416.49-25.77-461.29
							c50.34-34.61,137.39-2.45,266.11,98.26c3.91,3.05,6.21,7.72,6.25,12.68c0.04,4.96-2.17,9.67-6.02,12.79
							c-2.03,1.67-151.79,125.98-209.28,337.07c-1.9,7-8.21,11.89-15.46,12.01C1902.2,1832.53,1902.11,1832.53,1902.03,1832.53z
							 M1907.99,1378.71c-12.77,0-22.08,3.2-28.85,7.86c-32.61,22.41-53.5,106.36,23.33,373.96
							c55.1-154.27,151.28-254.17,188.7-288.88C1996.55,1399.85,1940.82,1378.71,1907.99,1378.71z"/>
					</g>
				</g>
				<g>
					<g>
						<path class="st7" d="M2899.29,2078.34c0,26.99-46.2,48.88-103.19,48.88c-56.99,0-103.19-21.88-103.19-48.88
							s46.2-42.36,103.19-42.36C2853.09,2035.98,2899.29,2051.35,2899.29,2078.34z"/>
					</g>
				</g>
				<g>
					<g>
						<path class="st7" d="M2812.4,2103.86c1.09,26.09-2.47,53.46-14.51,78.67c-5.86,12.61-14.01,24.48-24.29,34.73
							c-10.2,10.32-23.16,18.51-37.64,23.17c-7.17,2.5-14.84,3.66-22.48,4.12c-7.66,0.1-15.39-0.47-22.74-2.42
							c-14.76-3.66-28.18-11.07-38.69-20.75c-21.03-19.71-31.44-45.71-34.42-71.02c-0.46-3.91,2.33-7.45,6.24-7.91
							c2.8-0.33,5.41,1.01,6.83,3.23l0.18,0.29c6.5,10.17,12.56,19.94,19.39,28.7c6.75,8.8,14.22,16.43,22.24,22.44
							c15.88,12.29,35.04,16.14,52.14,9.68c17.29-5.97,31.56-21.48,40.61-39.96c4.54-9.31,8-19.44,10.33-30.02
							c2.24-10.62,3.54-21.59,4.21-32.78l0.03-0.46c0.53-8.99,8.25-15.84,17.24-15.3
							C2805.49,2088.77,2812.03,2095.63,2812.4,2103.86z"/>
					</g>
				</g>
				<g>
					<g>
						<path class="st7" d="M2812.4,2104.03c0.67,10.8,1.76,21.42,3.66,31.71c2.11,10.21,4.92,20.1,8.93,29.11
							c7.81,17.97,20.77,32.69,36.16,36.71c7.6,2.22,15.78,1.77,23.96-0.87c8.11-2.89,16.14-8.04,23.42-14.72
							c7.41-6.58,14.18-14.63,20.5-23.36c6.31-8.81,11.93-18.4,17.94-28.26l0.14-0.23c2.05-3.35,6.42-4.41,9.77-2.37
							c2.47,1.51,3.69,4.28,3.35,6.98c-1.56,12.1-4.73,24.07-9.4,35.75c-4.94,11.56-11.47,22.8-20.23,32.91
							c-8.85,9.94-19.9,18.96-33.5,24.48c-13.5,5.38-29.51,7.6-44.45,3.78c-14.92-3.59-28.26-11.71-38.18-21.98
							c-10-10.28-17.38-22.16-22.58-34.45c-5.21-12.32-8.51-24.99-10.42-37.65c-1.84-12.66-2.15-25.27-1.66-37.7
							c0.36-8.99,7.93-16,16.93-15.64c8.41,0.33,15.08,6.98,15.62,15.2L2812.4,2104.03z"/>
					</g>
				</g>
				<g>
					<g>
						<path class="st7" d="M2899.29,2212.47c-12.03,201.03-220.14,175.42-220.14,7.83c51.28,12.52,91.08-13.76,121.91-70.38
							C2819.52,2207.44,2850.36,2233.16,2899.29,2212.47z"/>
					</g>
				</g>
				<g>
					<g>
						<path class="st12" d="M2709.73,2315.51c42.22-58.93,117.03-55.86,158.97-4.47
							C2813.84,2370.32,2761.01,2366.82,2709.73,2315.51z"/>
					</g>
				</g>
				<g>
					<g>
						<path class="st7" d="M2788.55,2371c-1.08,0-2.16-0.02-3.24-0.05c-60.85-1.82-122.45-54.15-122.45-150.65
							c0-9,7.29-16.29,16.29-16.29s16.29,7.29,16.29,16.29c0,75.73,45.69,116.73,90.83,118.08c40.98,1.25,91.03-31.26,96.74-126.88
							c0.53-8.98,8.14-15.83,17.24-15.29c8.98,0.54,15.83,8.25,15.29,17.24C2909.02,2322.73,2847.61,2370.99,2788.55,2371z"/>
					</g>
				</g>
				<g>
					<g>
						<g>
							<ellipse class="st3" cx="2387.1" cy="1887.26" rx="162.93" ry="197.63"/>
						</g>
					</g>
					<g>
						<g>
							<ellipse class="st7" cx="2428.64" cy="1892.31" rx="121.39" ry="147.25"/>
						</g>
					</g>
					<g>
						<g>
							<ellipse class="st3" cx="2419.33" cy="1843.43" rx="39.6" ry="48.03"/>
						</g>
					</g>
					<g>
						<g>
							<path class="st7" d="M2387.1,2101.18c-98.82,0-179.22-95.97-179.22-213.93c0-117.96,80.4-213.93,179.22-213.93
								s179.22,95.97,179.22,213.93C2566.32,2005.22,2485.93,2101.18,2387.1,2101.18z M2387.1,1705.92
								c-80.85,0-146.63,81.35-146.63,181.34c0,99.99,65.78,181.34,146.63,181.34s146.63-81.35,146.63-181.34
								C2533.73,1787.27,2467.96,1705.92,2387.1,1705.92z"/>
						</g>
					</g>
				</g>
				<g>
					<g>
						<g>
							<ellipse class="st3" cx="3055.51" cy="1887.26" rx="124.07" ry="173.73"/>
						</g>
					</g>
					<g>
						<g>
							<ellipse class="st7" cx="3023.88" cy="1891.69" rx="92.44" ry="129.44"/>
						</g>
					</g>
					<g>
						<g>
							<ellipse class="st3" cx="3030.97" cy="1848.73" rx="30.15" ry="42.22"/>
						</g>
					</g>
					<g>
						<g>
							<path class="st7" d="M3055.51,2077.28c-77.4,0-140.37-85.24-140.37-190.03c0-104.78,62.97-190.02,140.37-190.02
								c77.4,0,140.37,85.24,140.37,190.02C3195.88,1992.04,3132.91,2077.28,3055.51,2077.28z M3055.51,1729.82
								c-59.43,0-107.78,70.63-107.78,157.44c0,86.81,48.35,157.44,107.78,157.44c59.43,0,107.78-70.63,107.78-157.44
								C3163.29,1800.44,3114.94,1729.82,3055.51,1729.82z"/>
						</g>
					</g>
				</g>
				<g class="st0">
					<g>
						<path class="st3" d="M2756.98,1463.75c0,62.65-82.8,70.57-184.94,70.57c-102.14,0-184.94-7.92-184.94-70.57
							s82.8-113.44,184.94-113.44C2674.18,1350.32,2756.98,1401.1,2756.98,1463.75z"/>
					</g>
				</g>
				<g class="st0">
					<g>
						<path class="st3" d="M2914.88,1545.96c-11.58,28.4-39.25,30.43-67.65,18.86c-28.4-11.58-46.77-32.38-35.19-60.78
							c11.58-28.4,43.98-42.04,72.39-30.46C2912.82,1485.15,2926.46,1517.56,2914.88,1545.96z"/>
					</g>
				</g>
				<g>
					<g>
						<path class="st4" d="M2294.54,3111.54c147.51,11.53,291.19,10.12,430.29-6.75c49.62-6.02,84.93-51.5,77.72-100.96
							c-48.7-333.91-556.33-320.95-615.18-35.66C2172.87,3038.46,2222.99,3105.95,2294.54,3111.54z"/>
					</g>
					<g>
						<path class="st5" d="M2481.24,3121.3c-60.97,0-123.35-2.48-186.88-7.45c-34.56-2.7-66.37-20.19-87.27-47.99
							c-21.07-28.03-29.1-63.81-22.01-98.17c31.76-153.96,186.7-219.99,317.21-216.14c123.14,3.61,276.27,71.75,302.55,251.93
							c3.55,24.36-2.75,48.57-17.74,68.18c-15.16,19.83-37.17,32.41-62,35.42C2647.08,3116.56,2565.51,3121.3,2481.24,3121.3z
							 M2294.72,3109.22c151.03,11.8,295.64,9.54,429.83-6.74c23.56-2.86,44.47-14.8,58.85-33.63
							c14.23-18.61,20.21-41.58,16.84-64.68c-25.86-177.33-176.74-244.4-298.08-247.96c-128.56-3.74-281.3,61.1-312.51,212.43
							c-6.82,33.05,0.9,67.47,21.17,94.43C2230.91,3089.8,2261.49,3106.62,2294.72,3109.22z"/>
					</g>
				</g>
				<g class="st6">
					<g>
						<path class="st1" d="M2724.84,3104.81c-139.09,16.85-282.79,18.25-430.31,6.75c-37.85-2.98-69.69-23.23-89.14-52.09
							c3.07,0.51,6.19,0.88,9.36,1.12c147.47,11.54,291.17,10.1,430.26-6.75c49.62-6,84.91-51.48,77.74-100.97
							c-10.66-73.04-43.29-129.5-88.4-170.14c84.63,36.96,151.94,109.77,168.19,221.11
							C2809.74,3053.27,2774.46,3098.75,2724.84,3104.81z"/>
					</g>
				</g>
				<g class="st2">
					<g>
						<path class="st3" d="M2728.7,2847.85c-166-124.29-463.03-63.59-507.21,150.59c-7.35,35.7,1.96,70.66,22.3,97.15
							c-42.55-24.95-67.17-75.41-56.42-127.41C2234.76,2738.36,2573.36,2685.25,2728.7,2847.85z"/>
					</g>
				</g>
				<g>
					<g>
						<path class="st7" d="M2481.24,3135.27c-61.34,0-124.08-2.5-187.97-7.49l0,0c-38.55-3.01-74.03-22.52-97.34-53.52
							c-23.48-31.23-32.42-71.1-24.53-109.38c33.39-161.85,195.24-231.18,331.3-227.28c128.55,3.77,288.43,75.14,315.96,263.88
							c4.1,28.11-3.17,56.05-20.47,78.68c-17.46,22.84-42.82,37.33-71.41,40.8C2648.2,3130.49,2566.07,3135.27,2481.24,3135.27z
							 M2295.81,3095.29c150.11,11.73,293.79,9.48,427.06-6.68c19.8-2.4,37.36-12.43,49.44-28.24
							c11.92-15.6,16.93-34.84,14.11-54.19c-24.61-168.76-168.74-232.61-284.67-236.01c-122.89-3.68-268.84,57.85-298.43,201.29
							c-6.01,29.12,0.79,59.46,18.66,83.22C2239.66,3078.21,2266.57,3093.01,2295.81,3095.29L2295.81,3095.29z"/>
					</g>
				</g>
				<g>
					<g>
						<path class="st7" d="M2609.41,3100.07c7.64-5.21,14.98-9.76,21.74-14.94c6.67-5.21,13.19-10.72,18.57-17.72
							c5.54-6.85,10.23-14.85,14.24-23.58c4.08-8.72,7.36-18.15,10.62-27.92l0.03-0.1c0.83-2.5,3.53-3.84,6.02-3.01
							c1.8,0.6,3,2.17,3.22,3.93c1.32,10.63,1.38,21.53,0.05,32.59c-1.39,11.03-4.39,22.24-9.43,32.97
							c-5.16,10.59-12.08,20.9-21.01,28.99c-8.83,8.17-19.09,14.48-29.91,18.15c-8.58,2.91-17.9-1.69-20.81-10.27
							c-2.42-7.13,0.35-14.77,6.28-18.82L2609.41,3100.07z"/>
					</g>
				</g>
				<g>
					<g>
						<path class="st7" d="M2458.5,3102.61c7.64-5.21,14.99-9.76,21.74-14.94c6.67-5.21,13.19-10.72,18.57-17.72
							c5.54-6.85,10.24-14.85,14.24-23.58c4.08-8.72,7.36-18.15,10.62-27.92l0.03-0.1c0.83-2.5,3.53-3.84,6.02-3.01
							c1.8,0.6,3,2.17,3.22,3.93c1.32,10.63,1.38,21.53,0.05,32.59c-1.4,11.03-4.39,22.24-9.43,32.97
							c-5.16,10.59-12.08,20.9-21.01,28.99c-8.83,8.17-19.09,14.48-29.91,18.15c-8.58,2.91-17.9-1.69-20.81-10.27
							c-2.42-7.13,0.35-14.77,6.28-18.82L2458.5,3102.61z"/>
					</g>
				</g>
				<g>
					<g>
						<g>
							<path class="st4" d="M1332.05,3111.54c147.51,11.53,291.19,10.12,430.29-6.75c49.62-6.02,84.93-51.5,77.72-100.96
								c-48.7-333.91-556.33-320.95-615.18-35.66C1210.38,3038.46,1260.51,3105.95,1332.05,3111.54z"/>
						</g>
						<g>
							<path class="st5" d="M1518.75,3121.3c-60.97,0-123.35-2.48-186.88-7.45c-34.56-2.7-66.37-20.19-87.26-47.98
								c-21.07-28.03-29.1-63.81-22.01-98.17c31.75-153.96,186.67-219.96,317.21-216.14c123.14,3.61,276.27,71.75,302.55,251.93
								c3.55,24.36-2.75,48.57-17.74,68.18c-15.16,19.83-37.17,32.41-62,35.42C1684.59,3116.56,1603.02,3121.3,1518.75,3121.3z
								 M1332.23,3109.22c151.03,11.8,295.64,9.54,429.83-6.74c23.56-2.86,44.47-14.8,58.85-33.63
								c14.23-18.61,20.21-41.58,16.84-64.68c-25.86-177.33-176.74-244.4-298.08-247.96c-128.89-3.74-281.3,61.1-312.51,212.43
								c-6.82,33.05,0.9,67.47,21.17,94.43C1268.43,3089.8,1299.01,3106.62,1332.23,3109.22z"/>
						</g>
					</g>
					<g class="st6">
						<g>
							<path class="st1" d="M1762.35,3104.81c-139.09,16.85-282.79,18.25-430.31,6.75c-37.85-2.98-69.69-23.23-89.14-52.09
								c3.07,0.51,6.19,0.88,9.36,1.12c147.47,11.54,291.17,10.1,430.26-6.75c49.62-6,84.91-51.48,77.74-100.97
								c-10.66-73.04-43.29-129.5-88.4-170.14c84.63,36.96,151.94,109.77,168.19,221.11
								C1847.26,3053.27,1811.97,3098.75,1762.35,3104.81z"/>
						</g>
					</g>
					<g class="st2">
						<g>
							<path class="st3" d="M1766.22,2847.85c-166-124.29-463.03-63.59-507.21,150.59c-7.35,35.7,1.96,70.66,22.3,97.15
								c-42.55-24.95-67.17-75.41-56.42-127.41C1272.27,2738.36,1610.88,2685.25,1766.22,2847.85z"/>
						</g>
					</g>
					<g>
						<g>
							<path class="st7" d="M1518.75,3135.27c-61.34,0-124.08-2.5-187.97-7.49l0,0c-38.55-3.01-74.03-22.52-97.33-53.52
								c-23.48-31.23-32.42-71.1-24.53-109.38c33.38-161.85,195-231.26,331.29-227.28c128.55,3.77,288.44,75.13,315.97,263.88
								c4.1,28.11-3.17,56.05-20.47,78.68c-17.46,22.84-42.82,37.33-71.41,40.8C1685.72,3130.49,1603.59,3135.27,1518.75,3135.27z
								 M1333.32,3095.29c150.11,11.73,293.79,9.48,427.06-6.68c19.8-2.4,37.36-12.43,49.44-28.24
								c11.92-15.6,16.93-34.84,14.11-54.19c-24.61-168.76-168.74-232.61-284.67-236.01c-123.11-3.68-268.84,57.85-298.42,201.29
								c-6.01,29.13,0.79,59.46,18.66,83.22C1277.18,3078.21,1304.09,3093.01,1333.32,3095.29L1333.32,3095.29z"/>
						</g>
					</g>
					<g>
						<g>
							<path class="st7" d="M1646.93,3100.07c7.64-5.21,14.98-9.76,21.74-14.94c6.67-5.21,13.19-10.72,18.57-17.72
								c5.54-6.85,10.23-14.85,14.24-23.58c4.08-8.72,7.36-18.15,10.62-27.92l0.03-0.1c0.83-2.5,3.53-3.84,6.02-3.01
								c1.8,0.6,3,2.17,3.22,3.93c1.32,10.63,1.38,21.53,0.04,32.59c-1.39,11.03-4.39,22.24-9.43,32.97
								c-5.16,10.59-12.08,20.9-21.01,28.99c-8.83,8.17-19.09,14.48-29.91,18.15c-8.58,2.91-17.9-1.69-20.81-10.27
								c-2.42-7.13,0.35-14.77,6.28-18.82L1646.93,3100.07z"/>
						</g>
					</g>
					<g>
						<g>
							<path class="st7" d="M1496.01,3102.61c7.64-5.21,14.99-9.76,21.74-14.94c6.67-5.21,13.19-10.72,18.57-17.72
								c5.54-6.85,10.24-14.85,14.24-23.58c4.08-8.72,7.36-18.15,10.62-27.92l0.03-0.1c0.83-2.5,3.53-3.84,6.02-3.01
								c1.8,0.6,3,2.17,3.22,3.93c1.32,10.63,1.38,21.53,0.05,32.59c-1.4,11.03-4.39,22.24-9.43,32.97
								c-5.16,10.59-12.08,20.9-21.01,28.99c-8.83,8.17-19.09,14.48-29.91,18.15c-8.58,2.91-17.9-1.69-20.81-10.27
								c-2.42-7.13,0.35-14.77,6.28-18.82L1496.01,3102.61z"/>
						</g>
					</g>
				</g>
			</g>
		</g>
	</g>
	<g>
		<g>
			<g>
				<path class="st7" d="M1969.63,2219.26c-9.78,1.58-18.6,0.66-27.19-0.86c-8.54-1.64-16.69-4.31-24.58-7.64
					c-7.9-3.31-15.61-7.12-23.02-11.72c-7.41-4.6-14.59-9.78-21.14-16.6c-2.26-2.36-2.19-6.1,0.17-8.37
					c1.03-0.99,2.34-1.54,3.67-1.63c9.43-0.68,18.24,0.27,26.82,1.81c8.58,1.53,16.86,3.87,24.95,6.69
					c8.1,2.8,15.94,6.27,23.38,10.77c7.4,4.62,14.57,9.84,20.78,17.55c2.14,2.67,1.72,6.57-0.94,8.71
					C1971.66,2218.67,1970.64,2219.1,1969.63,2219.26z"/>
			</g>
		</g>
		<g>
			<g>
				<path class="st7" d="M1912.92,2565.32c6.03-7.86,13.07-13.24,20.36-18.03c7.34-4.66,15.1-8.32,23.13-11.31
					c8.02-3.01,16.24-5.53,24.78-7.27c8.54-1.74,17.32-2.9,26.77-2.43c3.26,0.16,5.78,2.94,5.62,6.2c-0.07,1.43-0.65,2.73-1.55,3.71
					c-6.39,6.97-13.45,12.32-20.75,17.09c-7.3,4.77-14.92,8.75-22.74,12.25c-7.81,3.52-15.9,6.37-24.39,8.21
					c-8.55,1.72-17.35,2.84-27.16,1.49c-3.39-0.47-5.76-3.59-5.29-6.98C1911.85,2567.15,1912.3,2566.14,1912.92,2565.32z"/>
			</g>
		</g>
		<g>
			<g>
				<path class="st7" d="M1987.55,2376.49c-9.33,5.22-18.72,7.77-28.14,9.68c-9.42,1.77-18.86,2.45-28.33,2.41
					c-9.46-0.02-18.94-0.56-28.44-1.96c-9.5-1.39-19.01-3.41-28.57-7.18c-2.99-1.18-4.46-4.56-3.28-7.55c0.57-1.46,1.68-2.55,3-3.16
					c9.35-4.26,18.75-6.77,28.16-8.66c9.41-1.89,18.85-2.92,28.3-3.43c9.45-0.53,18.92-0.34,28.41,0.94
					c9.5,1.41,19.02,3.47,28.6,8.2c3,1.48,4.23,5.11,2.75,8.11C1989.45,2375.03,1988.58,2375.92,1987.55,2376.49z"/>
			</g>
		</g>
	</g>
	<g>
		<g>
			<g>
				<path class="st7" d="M3331.98,2197.47c6.73-7.27,14.24-11.98,21.95-16.07c7.74-3.96,15.8-6.89,24.07-9.12
					c8.26-2.26,16.68-4.01,25.35-4.94c8.66-0.94,17.52-1.28,26.88,0.06c3.23,0.46,5.48,3.46,5.02,6.69c-0.2,1.42-0.9,2.66-1.88,3.55
					c-7.01,6.35-14.54,11.02-22.24,15.09c-7.71,4.08-15.66,7.34-23.77,10.09c-8.1,2.78-16.42,4.87-25.05,5.92
					c-8.67,0.92-17.53,1.22-27.18-1.03c-3.33-0.78-5.4-4.11-4.62-7.44C3330.74,2199.2,3331.28,2198.23,3331.98,2197.47z"/>
			</g>
		</g>
		<g>
			<g>
				<path class="st7" d="M3362.9,2566.47c-9.88,0.67-18.58-1.06-26.99-3.37c-8.35-2.43-16.22-5.83-23.77-9.89
					c-7.56-4.03-14.89-8.53-21.83-13.8c-6.95-5.26-13.62-11.09-19.51-18.49c-2.04-2.56-1.62-6.28,0.94-8.31
					c1.12-0.89,2.48-1.31,3.81-1.29c9.46,0.19,18.14,1.96,26.54,4.28c8.4,2.32,16.43,5.41,24.22,8.97
					c7.81,3.54,15.29,7.72,22.29,12.89c6.94,5.28,13.59,11.14,19.06,19.4c1.89,2.85,1.11,6.7-1.75,8.59
					C3364.98,2566.07,3363.93,2566.4,3362.9,2566.47z"/>
			</g>
		</g>
		<g>
			<g>
				<path class="st7" d="M3307.34,2352.66c9.89-4.06,19.53-5.45,29.1-6.2c9.56-0.62,19.02-0.15,28.41,1.04
					c9.39,1.16,18.73,2.85,27.99,5.38c9.26,2.53,18.46,5.69,27.49,10.59c2.82,1.53,3.87,5.07,2.34,7.89
					c-0.74,1.37-1.98,2.33-3.36,2.77c-9.8,3.1-19.43,4.45-29,5.18c-9.57,0.73-19.06,0.62-28.5-0.02
					c-9.45-0.61-18.82-1.95-28.09-4.37c-9.26-2.55-18.45-5.75-27.4-11.61c-2.8-1.83-3.58-5.58-1.75-8.38
					C3305.27,2353.88,3306.24,2353.11,3307.34,2352.66z"/>
			</g>
		</g>
	</g>
</g>
</svg>
